<svg xmlns="http://www.w3.org/2000/svg" viewBox="0 0 20 20">
  <rect width="20" height="20" fill="#8bc34a"/>
  <!-- bowl depression -->
  <ellipse cx="10" cy="15" rx="8" ry="4" fill="#558b2f"/>
  <!-- plants -->
  <rect x="5"  y="6"  width="2" height="8" fill="#33691e" rx="1"/>
  <circle cx="6" cy="5" r="3" fill="#aed581"/>
  <rect x="9"  y="4"  width="2" height="9" fill="#33691e" rx="1"/>
  <circle cx="10" cy="3" r="3.5" fill="#dcedc8"/>
  <rect x="13" y="6"  width="2" height="8" fill="#33691e" rx="1"/>
  <circle cx="14" cy="5" r="3" fill="#aed581"/>
  <!-- raindrops -->
  <path d="M1,9  Q1,7  1.7,7.5 Q2.4,7 2.4,9  Q2.4,10.5 1.7,10.5 Q1,10.5 1,9"   fill="#64b5f6" opacity="0.85"/>
  <path d="M17,8 Q17,6 17.7,6.5 Q18.4,6 18.4,8 Q18.4,9.5 17.7,9.5 Q17,9.5 17,8" fill="#64b5f6" opacity="0.85"/>
</svg>
